<svg xmlns="http://www.w3.org/2000/svg" style="overflow: hidden; display: block; width: 1954px; height: 1138px;" width="1954px" height="1138px" viewBox="0 0 1954 1138" xmlns:xlink="http://www.w3.org/1999/xlink"><defs><path fill="rgb(0,0,0)" stroke="rgb(0,0,0)" d="M 0,0 L 10,-5 L 5,0 L 10,5 Z" fill-opacity="1" stroke-opacity="1" stroke-width="1" stroke-linecap="butt" stroke-linejoin="miter" stroke-miterlimit="10" id="ygc202_0"/></defs><g style="pointer-events:visiblePainted" transform="translate(562 -132.25)" image-rendering="auto" shape-rendering="auto"><g><path fill="none" stroke="rgb(0,0,0)" d="M 352,240.23016230838596 L -210.0667019845185,457.15040437274473" stroke-opacity="1" stroke-width="1" stroke-linecap="butt" stroke-linejoin="miter" stroke-miterlimit="10"/><use xlink:href="#ygc202_0" style="pointer-events: none;" transform="matrix(0.9329330451659837 -0.36004990381518576 0.36004990381518576 0.9329330451659837 -214.7313672103484 458.95065389182065)"/></g><g><path fill="none" stroke="rgb(0,0,0)" d="M 424.5,242.25 L 424.5,443.75" stroke-opacity="1" stroke-width="0.75" stroke-linecap="butt" stroke-linejoin="miter" stroke-miterlimit="10"/><use xlink:href="#ygc202_0" style="pointer-events: none;" transform="matrix(0 -1 1 0 424.5 448.75)"/></g><g><path fill="none" stroke="rgb(0,0,0)" d="M 447.9252336448598,242.25 L 607.3966182688687,446.4802591833506" stroke-opacity="1" stroke-width="0.75" stroke-linecap="butt" stroke-linejoin="miter" stroke-miterlimit="10"/><use xlink:href="#ygc202_0" style="pointer-events: none;" transform="matrix(-0.6154438980277323 -0.7881806952599322 0.7881806952599322 -0.6154438980277323 610.4738377590073 450.42116265965024)"/></g><g><path fill="none" stroke="rgb(0,0,0)" d="M 471.72196261682245,242.25 L 800.9516375966489,451.408825725643" stroke-opacity="1" stroke-width="0.75" stroke-linecap="butt" stroke-linejoin="miter" stroke-miterlimit="10"/><use xlink:href="#ygc202_0" style="pointer-events: none;" transform="matrix(-0.8440688008483713 -0.5362348920336988 0.5362348920336988 -0.8440688008483713 805.1719816008907 454.0900001858115)"/></g><g><path fill="none" stroke="rgb(0,0,0)" d="M 495.51869158878503,242.25 L 1001.514051832183,455.99458565354746" stroke-opacity="1" stroke-width="0.75" stroke-linecap="butt" stroke-linejoin="miter" stroke-miterlimit="10"/><use xlink:href="#ygc202_0" style="pointer-events: none;" transform="matrix(-0.9211829406252285 -0.38912978542005305 0.38912978542005305 -0.9211829406252285 1006.1199665353091 457.94023458064777)"/></g><g><path fill="none" stroke="rgb(0,0,0)" d="M 497,235.18930657204112 L 1206.6863074401906,459.7370552113562" stroke-opacity="1" stroke-width="0.75" stroke-linecap="butt" stroke-linejoin="miter" stroke-miterlimit="10"/><use xlink:href="#ygc202_0" style="pointer-events: none;" transform="matrix(-0.953414210828263 -0.301664287894209 0.301664287894209 -0.953414210828263 1211.453378494332 461.24537665082727)"/></g><g><path fill="none" stroke="rgb(0,0,0)" d="M 22,529.75 L 22,650.25" stroke-opacity="1" stroke-width="0.75" stroke-linecap="butt" stroke-linejoin="miter" stroke-miterlimit="10"/><use xlink:href="#ygc202_0" style="pointer-events: none;" transform="matrix(0 -1 1 0 22 655.25)"/></g><g><path fill="none" stroke="rgb(0,0,0)" d="M -50.5,711.2283315276273 L -378.1248593782398,824.1045019309646" stroke-opacity="1" stroke-width="0.75" stroke-linecap="butt" stroke-linejoin="miter" stroke-miterlimit="10"/><use xlink:href="#ygc202_0" style="pointer-events: none;" transform="matrix(0.945460032589342 -0.3257381260708676 0.3257381260708676 0.945460032589342 -382.85215954118655 825.7331925613189)"/></g><g><path fill="none" stroke="rgb(0,0,0)" d="M -22.669811320754718,716.25 L -171.77775762002764,816.3900779792372" stroke-opacity="1" stroke-width="0.75" stroke-linecap="butt" stroke-linejoin="miter" stroke-miterlimit="10"/><use xlink:href="#ygc202_0" style="pointer-events: none;" transform="matrix(0.8301573736574221 -0.5575291337340238 0.5575291337340238 0.8301573736574221 -175.92854448831477 819.1777236479072)"/></g><g><path fill="none" stroke="rgb(0,0,0)" d="M 66.66981132075472,716.25 L 215.77775762002764,816.3900779792372" stroke-opacity="1" stroke-width="0.75" stroke-linecap="butt" stroke-linejoin="miter" stroke-miterlimit="10"/><use xlink:href="#ygc202_0" style="pointer-events: none;" transform="matrix(-0.8301573736574221 -0.5575291337340238 0.5575291337340238 -0.8301573736574221 219.92854448831477 819.1777236479072)"/></g><g><path fill="none" stroke="rgb(0,0,0)" d="M 94.5,710.5953009503696 L 433.53623970570095,824.4427394154308" stroke-opacity="1" stroke-width="0.75" stroke-linecap="butt" stroke-linejoin="miter" stroke-miterlimit="10"/><use xlink:href="#ygc202_0" style="pointer-events: none;" transform="matrix(-0.9479802443858854 -0.3183291633735074 0.3183291633735074 -0.9479802443858854 438.2761409276304 826.0343852322983)"/></g><g><path fill="none" stroke="rgb(0,0,0)" d="M 352,240.12627169359664 L 220.2919079613804,290.7680724924076 Q 215.625,292.5625 215.625,297.5625 L 215.625,423.75" stroke-opacity="1" stroke-width="0.75" stroke-linecap="butt" stroke-linejoin="miter" stroke-miterlimit="10"/><use xlink:href="#ygc202_0" style="pointer-events: none;" transform="matrix(0 -1 1 0 215.625 428.75)"/></g><g><path fill="none" stroke="rgb(0,0,0)" d="M 352,240.37189440993788 L 28.992396066821904,365.6627320846396 Q 22,368.375 22,375.875 L 22,423.75" stroke-opacity="1" stroke-width="0.75" stroke-linecap="butt" stroke-linejoin="miter" stroke-miterlimit="10"/><use xlink:href="#ygc202_0" style="pointer-events: none;" transform="matrix(0 -1 1 0 22 428.75)"/></g><g><path fill="none" stroke="rgb(0,0,0)" d="M 22,716.25 L 22,789.25" stroke-opacity="1" stroke-width="0.75" stroke-linecap="butt" stroke-linejoin="miter" stroke-miterlimit="10"/><use xlink:href="#ygc202_0" style="pointer-events: none;" transform="matrix(0 -1 1 0 22 794.25)"/></g><g><path fill="none" stroke="rgb(0,0,0)" d="M 60.871903750884655,868.4417905166313 L 254.45614747343004,983.9381978062175 Q 258.75,986.5 263.75,986.5 L 698.3125,986.5" stroke-opacity="1" stroke-width="0.75" stroke-linecap="butt" stroke-linejoin="miter" stroke-miterlimit="10"/><use xlink:href="#ygc202_0" style="pointer-events: none;" transform="matrix(-1 0 0 -1 703.3125 986.5)"/></g><g><path fill="none" stroke="rgb(0,0,0)" d="M 216.27629298632257,529.3008324232258 L 735.3823253819172,952.707639915247" stroke-opacity="1" stroke-width="0.75" stroke-linecap="butt" stroke-linejoin="miter" stroke-miterlimit="10"/><use xlink:href="#ygc202_0" style="pointer-events: none;" transform="matrix(-0.774919440034687 -0.6320600141254997 0.6320600141254997 -0.774919440034687 739.2569225820907 955.8679399858745)"/></g><g><path fill="none" stroke="rgb(0,0,0)" d="M 842.9630507955936,1016.5 L 1172.9144983907092,1166.1365987705851" stroke-opacity="1" stroke-width="0.75" stroke-linecap="butt" stroke-linejoin="miter" stroke-miterlimit="10"/><use xlink:href="#ygc202_0" style="pointer-events: none;" transform="matrix(-0.9107210557923089 -0.41302198311535687 0.41302198311535687 -0.9107210557923089 1177.4681036696709 1168.201708686162)"/></g><g><path fill="none" stroke="rgb(0,0,0)" d="M 809.8877753977968,1016.5 L 967.4869966611019,1159.44594923355" stroke-opacity="1" stroke-width="0.75" stroke-linecap="butt" stroke-linejoin="miter" stroke-miterlimit="10"/><use xlink:href="#ygc202_0" style="pointer-events: none;" transform="matrix(-0.7407023807561395 -0.6718333001140885 0.6718333001140885 -0.7407023807561395 971.1905085648826 1162.8051157341206)"/></g><g><path fill="none" stroke="rgb(0,0,0)" d="M 710.6619492044064,1016.5 L 380.71050160929076,1166.1365987705851" stroke-opacity="1" stroke-width="0.75" stroke-linecap="butt" stroke-linejoin="miter" stroke-miterlimit="10"/><use xlink:href="#ygc202_0" style="pointer-events: none;" transform="matrix(0.9107210557923089 -0.41302198311535687 0.41302198311535687 0.9107210557923089 376.1568963303292 1168.201708686162)"/></g><g><path fill="none" stroke="rgb(0,0,0)" d="M 743.7372246022032,1016.5 L 586.1380033388981,1159.44594923355" stroke-opacity="1" stroke-width="0.75" stroke-linecap="butt" stroke-linejoin="miter" stroke-miterlimit="10"/><use xlink:href="#ygc202_0" style="pointer-events: none;" transform="matrix(0.7407023807561395 -0.6718333001140885 0.6718333001140885 0.7407023807561395 582.4344914351174 1162.8051157341206)"/></g><g><path fill="none" stroke="rgb(0,0,0)" d="M 776.8125,1016.5 L 776.8125,1154.75" stroke-opacity="1" stroke-width="0.75" stroke-linecap="butt" stroke-linejoin="miter" stroke-miterlimit="10"/><use xlink:href="#ygc202_0" style="pointer-events: none;" transform="matrix(0 -1 1 0 776.8125 1159.75)"/></g><g><path d="M 352,182.25 L 497,182.25 L 497,242.25 L 352,242.25 Z" stroke="rgb(0,0,0)" stroke-opacity="1" stroke-width="1" stroke-linecap="butt" stroke-linejoin="miter" stroke-miterlimit="10" fill="rgb(0,105,92)" fill-opacity="1"/></g><g><path d="M 424.5,509.75 C 373.1454,509.75 331.5,496.31600000000003 331.5,479.75 C 331.5,463.18399999999997 373.1454,449.75 424.5,449.75 C 475.8546,449.75 517.5,463.18399999999997 517.5,479.75 C 517.5,496.31600000000003 475.8546,509.75 424.5,509.75 Z" stroke="rgb(0,0,0)" stroke-opacity="1" stroke-width="1" stroke-linecap="butt" stroke-linejoin="miter" stroke-miterlimit="10" fill="rgb(0,105,92)" fill-opacity="1"/></g><g><path d="M 633.375,509.75 C 593.3405,509.75 560.875,496.31600000000003 560.875,479.75 C 560.875,463.18399999999997 593.3405,449.75 633.375,449.75 C 673.4095,449.75 705.875,463.18399999999997 705.875,479.75 C 705.875,496.31600000000003 673.4095,509.75 633.375,509.75 Z" stroke="rgb(0,0,0)" stroke-opacity="1" stroke-width="1" stroke-linecap="butt" stroke-linejoin="miter" stroke-miterlimit="10" fill="rgb(0,105,92)" fill-opacity="1"/></g><g><path d="M 845.5625,509.75 C 805.528,509.75 773.0625,496.31600000000003 773.0625,479.75 C 773.0625,463.18399999999997 805.528,449.75 845.5625,449.75 C 885.597,449.75 918.0625,463.18399999999997 918.0625,479.75 C 918.0625,496.31600000000003 885.597,509.75 845.5625,509.75 Z" stroke="rgb(0,0,0)" stroke-opacity="1" stroke-width="1" stroke-linecap="butt" stroke-linejoin="miter" stroke-miterlimit="10" fill="rgb(0,105,92)" fill-opacity="1"/></g><g><path d="M 1057.75,509.75 C 1017.7155,509.75 985.25,496.31600000000003 985.25,479.75 C 985.25,463.18399999999997 1017.7155,449.75 1057.75,449.75 C 1097.7845,449.75 1130.25,463.18399999999997 1130.25,479.75 C 1130.25,496.31600000000003 1097.7845,509.75 1057.75,509.75 Z" stroke="rgb(0,0,0)" stroke-opacity="1" stroke-width="1" stroke-linecap="butt" stroke-linejoin="miter" stroke-miterlimit="10" fill="rgb(0,105,92)" fill-opacity="1"/></g><g><path d="M 1269.9375,509.75 C 1229.903,509.75 1197.4375,496.31600000000003 1197.4375,479.75 C 1197.4375,463.18399999999997 1229.903,449.75 1269.9375,449.75 C 1309.972,449.75 1342.4375,463.18399999999997 1342.4375,479.75 C 1342.4375,496.31600000000003 1309.972,509.75 1269.9375,509.75 Z" stroke="rgb(0,0,0)" stroke-opacity="1" stroke-width="1" stroke-linecap="butt" stroke-linejoin="miter" stroke-miterlimit="10" fill="rgb(0,105,92)" fill-opacity="1"/></g><g><path d="M 22,429.75 L 94.5,479.75 L 22,529.75 L -50.5,479.75 Z" stroke="rgb(0,0,0)" stroke-opacity="1" stroke-width="1" stroke-linecap="butt" stroke-linejoin="miter" stroke-miterlimit="10" fill="rgb(0,105,92)" fill-opacity="1"/></g><g><path d="M -268.625,509.75 C -308.6595,509.75 -341.125,496.31600000000003 -341.125,479.75 C -341.125,463.18399999999997 -308.6595,449.75 -268.625,449.75 C -228.5905,449.75 -196.125,463.18399999999997 -196.125,479.75 C -196.125,496.31600000000003 -228.5905,509.75 -268.625,509.75 Z" stroke="rgb(0,0,0)" stroke-opacity="1" stroke-width="1" stroke-linecap="butt" stroke-linejoin="miter" stroke-miterlimit="10" fill="rgb(0,105,92)" fill-opacity="1"/></g><g><path d="M 215.625,429.75 L 288.125,479.75 L 215.625,529.75 L 143.125,479.75 Z" stroke="rgb(0,0,0)" stroke-opacity="1" stroke-width="1" stroke-linecap="butt" stroke-linejoin="miter" stroke-miterlimit="10" fill="rgb(0,105,92)" fill-opacity="1"/></g><g><path d="M -50.5,656.25 L 94.5,656.25 L 94.5,716.25 L -50.5,716.25 Z" stroke="rgb(0,0,0)" stroke-opacity="1" stroke-width="1" stroke-linecap="butt" stroke-linejoin="miter" stroke-miterlimit="10" fill="rgb(0,105,92)" fill-opacity="1"/></g><g><path d="M 776.8125,1220.75 C 736.778,1220.75 704.3125,1207.316 704.3125,1190.75 C 704.3125,1174.184 736.778,1160.75 776.8125,1160.75 C 816.847,1160.75 849.3125,1174.184 849.3125,1190.75 C 849.3125,1207.316 816.847,1220.75 776.8125,1220.75 Z" stroke="rgb(0,0,0)" stroke-opacity="1" stroke-width="1" stroke-linecap="butt" stroke-linejoin="miter" stroke-miterlimit="10" fill="rgb(0,105,92)" fill-opacity="1"/></g><g><path d="M 551.625,1220.75 C 511.5905,1220.75 479.125,1207.316 479.125,1190.75 C 479.125,1174.184 511.5905,1160.75 551.625,1160.75 C 591.6595,1160.75 624.125,1174.184 624.125,1190.75 C 624.125,1207.316 591.6595,1220.75 551.625,1220.75 Z" stroke="rgb(0,0,0)" stroke-opacity="1" stroke-width="1" stroke-linecap="butt" stroke-linejoin="miter" stroke-miterlimit="10" fill="rgb(0,105,92)" fill-opacity="1"/></g><g><path d="M 1002,1220.75 C 961.9655,1220.75 929.5,1207.316 929.5,1190.75 C 929.5,1174.184 961.9655,1160.75 1002,1160.75 C 1042.0345,1160.75 1074.5,1174.184 1074.5,1190.75 C 1074.5,1207.316 1042.0345,1220.75 1002,1220.75 Z" stroke="rgb(0,0,0)" stroke-opacity="1" stroke-width="1" stroke-linecap="butt" stroke-linejoin="miter" stroke-miterlimit="10" fill="rgb(0,105,92)" fill-opacity="1"/></g><g><path d="M 258.75,875.25 C 218.7155,875.25 186.25,861.816 186.25,845.25 C 186.25,828.684 218.7155,815.25 258.75,815.25 C 298.7845,815.25 331.25,828.684 331.25,845.25 C 331.25,861.816 298.7845,875.25 258.75,875.25 Z" stroke="rgb(0,0,0)" stroke-opacity="1" stroke-width="1" stroke-linecap="butt" stroke-linejoin="miter" stroke-miterlimit="10" fill="rgb(0,105,92)" fill-opacity="1"/></g><g><path d="M -214.75,875.25 C -254.7845,875.25 -287.25,861.816 -287.25,845.25 C -287.25,828.684 -254.7845,815.25 -214.75,815.25 C -174.7155,815.25 -142.25,828.684 -142.25,845.25 C -142.25,861.816 -174.7155,875.25 -214.75,875.25 Z" stroke="rgb(0,0,0)" stroke-opacity="1" stroke-width="1" stroke-linecap="butt" stroke-linejoin="miter" stroke-miterlimit="10" fill="rgb(0,105,92)" fill-opacity="1"/></g><g><path d="M 495.5,875.25 C 455.4655,875.25 423,861.816 423,845.25 C 423,828.684 455.4655,815.25 495.5,815.25 C 535.5345,815.25 568,828.684 568,845.25 C 568,861.816 535.5345,875.25 495.5,875.25 Z" stroke="rgb(0,0,0)" stroke-opacity="1" stroke-width="1" stroke-linecap="butt" stroke-linejoin="miter" stroke-miterlimit="10" fill="rgb(0,105,92)" fill-opacity="1"/></g><g><path d="M -439.5,875.25 C -479.5345,875.25 -512,861.816 -512,845.25 C -512,828.684 -479.5345,815.25 -439.5,815.25 C -399.4655,815.25 -367,828.684 -367,845.25 C -367,861.816 -399.4655,875.25 -439.5,875.25 Z" stroke="rgb(0,0,0)" stroke-opacity="1" stroke-width="1" stroke-linecap="butt" stroke-linejoin="miter" stroke-miterlimit="10" fill="rgb(0,105,92)" fill-opacity="1"/></g><g><path d="M 1227.1875,1220.75 C 1187.153,1220.75 1154.6875,1207.316 1154.6875,1190.75 C 1154.6875,1174.184 1187.153,1160.75 1227.1875,1160.75 C 1267.222,1160.75 1299.6875,1174.184 1299.6875,1190.75 C 1299.6875,1207.316 1267.222,1220.75 1227.1875,1220.75 Z" stroke="rgb(0,0,0)" stroke-opacity="1" stroke-width="1" stroke-linecap="butt" stroke-linejoin="miter" stroke-miterlimit="10" fill="rgb(0,105,92)" fill-opacity="1"/></g><g><path d="M 326.4375,1220.75 C 286.403,1220.75 253.9375,1207.316 253.9375,1190.75 C 253.9375,1174.184 286.403,1160.75 326.4375,1160.75 C 366.472,1160.75 398.9375,1174.184 398.9375,1190.75 C 398.9375,1207.316 366.472,1220.75 326.4375,1220.75 Z" stroke="rgb(0,0,0)" stroke-opacity="1" stroke-width="1" stroke-linecap="butt" stroke-linejoin="miter" stroke-miterlimit="10" fill="rgb(0,105,92)" fill-opacity="1"/></g><g><path d="M 22,795.25 L 94.5,845.25 L 22,895.25 L -50.5,845.25 Z" stroke="rgb(0,0,0)" stroke-opacity="1" stroke-width="1" stroke-linecap="butt" stroke-linejoin="miter" stroke-miterlimit="10" fill="rgb(0,105,92)" fill-opacity="1"/></g><rect fill="rgb(255,255,255)" stroke="rgb(255,255,255)" width="95.3125" height="30" x="729.156" y="971.5" stroke-opacity="1" stroke-width="1" stroke-linecap="butt" stroke-linejoin="miter" stroke-miterlimit="10" fill-opacity="0.011764705882352941"/><g><path d="M 704.3125,956.5 L 849.3125,956.5 L 849.3125,1016.5 L 704.3125,1016.5 Z" stroke="rgb(0,0,0)" stroke-opacity="1" stroke-width="1" stroke-linecap="butt" stroke-linejoin="miter" stroke-miterlimit="10" fill="rgb(0,105,92)" fill-opacity="1"/></g><rect fill="rgb(255,140,0)" stroke="rgb(255,255,255)" width="95.3125" height="30" x="729.156" y="971.5" stroke-opacity="1" stroke-width="2" stroke-linecap="butt" stroke-linejoin="miter" stroke-miterlimit="10" fill-opacity="0"/><g transform="translate(1.1792678903495215 375.6246276528732)"><text font-family="Arial" font-size="12px" font-style="normal" font-weight="normal" text-anchor="start" fill="rgb(0,0,0)" fill-opacity="1" dy="0.9166666666666666em" transform="translate(0 0)">1</text></g><g transform="translate(9.977297297297298 586)"><text font-family="Arial" font-size="12px" font-style="normal" font-weight="normal" text-anchor="start" fill="rgb(0,0,0)" fill-opacity="1" dy="0.9166666666666666em" transform="translate(0 0)">n</text></g><g transform="translate(217.73216216216215 314.4901960784314)"><text font-family="Arial" font-size="12px" font-style="normal" font-weight="normal" text-anchor="start" fill="rgb(0,0,0)" fill-opacity="1" dy="0.9166666666666666em" transform="translate(0 0)">m</text></g><g transform="translate(5.964324324324322 748.75)"><text font-family="Arial" font-size="12px" font-style="normal" font-weight="normal" text-anchor="start" fill="rgb(0,0,0)" fill-opacity="1" dy="0.9166666666666666em" transform="translate(0 0)">m</text></g><g transform="translate(174.16486843469502 946.0469105330293)"><text font-family="Arial" font-size="12px" font-style="normal" font-weight="normal" text-anchor="start" fill="rgb(0,0,0)" fill-opacity="1" dy="0.9166666666666666em" transform="translate(0 0)">n</text></g><g transform="translate(474.8428033639757 726.1983060939923)"><text font-family="Arial" font-size="12px" font-style="normal" font-weight="normal" text-anchor="start" fill="rgb(0,0,0)" fill-opacity="1" dy="0.9166666666666666em" transform="translate(0 0)">n</text></g><g transform="translate(352 182.25)"><text font-family="Courier" font-size="14px" font-style="normal" font-weight="bold" text-anchor="middle" fill="rgb(255,255,255)" fill-opacity="1" transform="translate(72.5 22)"><tspan dy="0.8571428571428571em" x="0">profile</tspan></text></g><g transform="translate(331.5 449.75)"><text font-family="Courier" font-size="14px" font-style="normal" font-weight="bold" text-anchor="middle" fill="rgb(255,255,255)" fill-opacity="1" transform="translate(93 22)"><tspan dy="0.8571428571428571em" x="0">profileActivationToken</tspan></text></g><g transform="translate(560.875 449.75)"><text font-family="Courier" font-size="14px" font-style="normal" font-weight="bold" text-anchor="middle" fill="rgb(255,255,255)" fill-opacity="1" transform="translate(72.5 22)"><tspan dy="0.8571428571428571em" x="0">profileFirstName</tspan></text></g><g transform="translate(773.0625 449.75)"><text font-family="Courier" font-size="14px" font-style="normal" font-weight="bold" text-anchor="middle" fill="rgb(255,255,255)" fill-opacity="1" transform="translate(72.5 22)"><tspan dy="0.8571428571428571em" x="0">profileLastName</tspan></text></g><g transform="translate(985.25 449.75)"><text font-family="Courier" font-size="14px" font-style="normal" font-weight="bold" text-anchor="middle" fill="rgb(255,255,255)" fill-opacity="1" transform="translate(72.5 22)"><tspan dy="0.8571428571428571em" x="0">profileEmail</tspan></text></g><g transform="translate(1197.4375 449.75)"><text font-family="Courier" font-size="14px" font-style="normal" font-weight="bold" text-anchor="middle" fill="rgb(255,255,255)" fill-opacity="1" transform="translate(72.5 22)"><tspan dy="0.8571428571428571em" x="0">profileHash</tspan></text></g><g transform="translate(-50.5 429.75)"><text font-family="Courier" font-size="14px" font-style="normal" font-weight="bold" text-anchor="middle" fill="rgb(255,255,255)" fill-opacity="1" transform="translate(72.5 42)"><tspan dy="0.8571428571428571em" x="0">writes</tspan></text></g><g transform="translate(-341.125 449.75)"><rect fill="rgb(255,255,255)" stroke="rgb(255,255,255)" width="145" height="60" x="0" y="0" fill-opacity="0" stroke-opacity="0" stroke-width="1" stroke-linecap="butt" stroke-linejoin="miter" stroke-miterlimit="10"/><text font-family="Courier" font-size="14px" font-style="normal" font-weight="bold" text-decoration="underline" text-anchor="middle" fill="rgb(255,255,255)" fill-opacity="1" transform="translate(72.5 22)"><tspan dy="0.8571428571428571em" x="0">profileId</tspan></text></g><g transform="translate(143.125 429.75)"><text font-family="Courier" font-size="14px" font-style="normal" font-weight="bold" text-anchor="middle" fill="rgb(255,255,255)" fill-opacity="1" transform="translate(72.5 42)"><tspan dy="0.8571428571428571em" x="0">claps</tspan></text></g><g transform="translate(-50.5 656.25)"><text font-family="Courier" font-size="14px" font-style="normal" font-weight="bold" text-anchor="middle" fill="rgb(255,255,255)" fill-opacity="1" transform="translate(72.5 22)"><tspan dy="0.8571428571428571em" x="0">article</tspan></text></g><g transform="translate(704.3125 1160.75)"><text font-family="Courier" font-size="14px" font-style="normal" font-weight="bold" text-decoration="underline" text-anchor="middle" fill="rgb(255,255,255)" fill-opacity="1" transform="translate(72.5 22)"><tspan dy="0.8571428571428571em" x="0">clapArticleId</tspan></text></g><g transform="translate(479.125 1160.75)"><text font-family="Courier" font-size="14px" font-style="normal" font-weight="bold" text-decoration="underline" text-anchor="middle" fill="rgb(255,255,255)" fill-opacity="1" transform="translate(72.5 22)"><tspan dy="0.8571428571428571em" x="0">clapProfileId</tspan></text></g><g transform="translate(929.5 1160.75)"><text font-family="Courier" font-size="14px" font-style="normal" font-weight="bold" text-anchor="middle" fill="rgb(255,255,255)" fill-opacity="1" transform="translate(72.5 22)"><tspan dy="0.8571428571428571em" x="0">clapDate</tspan></text></g><g transform="translate(186.25 815.25)"><text font-family="Courier" font-size="14px" font-style="normal" font-weight="bold" text-anchor="middle" fill="rgb(255,255,255)" fill-opacity="1" transform="translate(72.5 22)"><tspan dy="0.8571428571428571em" x="0">articleContent</tspan></text></g><g transform="translate(-287.25 815.25)"><text font-family="Courier" font-size="14px" font-style="normal" font-weight="bold" text-decoration="underline" text-anchor="middle" fill="rgb(255,255,255)" fill-opacity="1" transform="translate(72.5 22)"><tspan dy="0.8571428571428571em" x="0">articleProfileId</tspan></text></g><g transform="translate(423 815.25)"><text font-family="Courier" font-size="14px" font-style="normal" font-weight="bold" text-anchor="middle" fill="rgb(255,255,255)" fill-opacity="1" transform="translate(72.5 22)"><tspan dy="0.8571428571428571em" x="0">articleDate</tspan></text></g><g transform="translate(-512 815.25)"><text font-family="Courier" font-size="14px" font-style="normal" font-weight="bold" text-decoration="underline" text-anchor="middle" fill="rgb(255,255,255)" fill-opacity="1" transform="translate(72.5 22)"><tspan dy="0.8571428571428571em" x="0">articleId</tspan></text></g><g transform="translate(1154.6875 1160.75)"><text font-family="Courier" font-size="14px" font-style="normal" font-weight="bold" text-anchor="middle" fill="rgb(255,255,255)" fill-opacity="1" transform="translate(72.5 22)"><tspan dy="0.8571428571428571em" x="0">clapNumber</tspan></text></g><g transform="translate(253.9375 1160.75)"><text font-family="Courier" font-size="14px" font-style="normal" font-weight="bold" text-decoration="underline" text-anchor="middle" fill="rgb(255,255,255)" fill-opacity="1" transform="translate(72.5 22)"><tspan dy="0.8571428571428571em" x="0">clapId</tspan></text></g><g transform="translate(-50.5 795.25)"><text font-family="Courier" font-size="14px" font-style="normal" font-weight="bold" text-anchor="middle" fill="rgb(255,255,255)" fill-opacity="1" transform="translate(72.5 42)"><tspan dy="0.8571428571428571em" x="0">are clapped</tspan></text></g><g transform="translate(704.3125 956.5)"><rect fill="none" stroke="rgb(0,0,0)" width="145" height="60" x="0" y="0" stroke-opacity="1" stroke-width="1" stroke-linecap="butt" stroke-linejoin="miter" stroke-miterlimit="10"/><text font-family="Courier" font-size="14px" font-style="normal" font-weight="bold" text-anchor="middle" fill="rgb(255,255,255)" fill-opacity="1" transform="translate(72.5 22)"><tspan dy="0.8571428571428571em" x="0">clap</tspan></text></g></g></svg>